<svg xmlns="http://www.w3.org/2000/svg" width="61" height="61" viewBox="0 0 61 61"><defs><mask id="oicpb" width="2" height="2" x="-1" y="-1"><path fill="#fff" d="M5 2h51v51H5z"/><path d="M30.5 2C44.583 2 56 13.417 56 27.5S44.583 53 30.5 53 5 41.583 5 27.5 16.417 2 30.5 2z"/></mask><filter id="oicpa" width="83" height="86" x="-11" y="-14" filterUnits="userSpaceOnUse"><feOffset dy="3" in="SourceGraphic" result="FeOffset2007Out"/><feGaussianBlur in="FeOffset2007Out" result="FeGaussianBlur2008Out" stdDeviation="2.4 2.4"/></filter></defs><g><g><g><g filter="url(#oicpa)"><path fill="none" d="M30.5 2C44.583 2 56 13.417 56 27.5S44.583 53 30.5 53 5 41.583 5 27.5 16.417 2 30.5 2z" mask="url(&quot;#oicpb&quot;)"/><path fill-opacity=".16" d="M30.5 2C44.583 2 56 13.417 56 27.5S44.583 53 30.5 53 5 41.583 5 27.5 16.417 2 30.5 2z"/></g><path fill="#fff" d="M30.5 2C44.583 2 56 13.417 56 27.5S44.583 53 30.5 53 5 41.583 5 27.5 16.417 2 30.5 2z"/></g><g><g><g><path fill="#0a4673" d="M36.29 37.022c0 .517-.596.948-1.32.948H17.654c-.746 0-1.32-.43-1.32-.948v-12.38c0-.517.596-.947 1.32-.947h17.295c.724 0 1.32.43 1.32.947v12.38z"/></g><g><path fill="#0a4673" d="M24.64 19.84c0 1.852-1.49 3.36-3.323 3.36-1.831 0-3.322-1.508-3.322-3.36 0-1.85 1.49-3.358 3.322-3.358s3.323 1.507 3.323 3.359z"/></g><g><path fill="#0a4673" d="M34.63 19.001c0 2.325-1.854 4.199-4.154 4.199S26.323 21.326 26.323 19c0-2.325 1.853-4.198 4.153-4.198 2.279 0 4.153 1.894 4.153 4.198z"/></g><g><path fill="#0a4673" d="M43.767 38.4s-.107.84-.895.84c-.767 0-5.772-4.715-5.772-5.318v-6.158c0-.624 4.878-5.318 5.772-5.318.895 0 .895.84.895.84z"/></g></g></g></g></g></svg>